<svg  viewBox="0 0 1454 433" fill="none" xmlns="http://www.w3.org/2000/svg">
    <g clip-path="url(#clip0_4_31)">
        <path d="M-0.000205603 98.2552C-0.676415 84.8813 1.51753 71.5176 6.43424 59.0617C11.351 46.6057 18.8766 35.3461 28.5056 26.0391C38.1347 16.7321 49.6441 9.59316 62.2609 5.10193C74.8777 0.610706 88.3096 -1.12885 101.654 0.000117916C123.875 -2.79404 146.302 3.28815 164.065 16.9263C181.828 30.5645 193.495 50.6579 196.532 72.8444H149.093C146.488 62.465 140.299 53.3396 131.619 47.0785C122.94 40.8175 112.327 37.8234 101.654 38.6245C93.8129 38.0636 85.9445 39.2474 78.6153 42.0907C71.286 44.934 64.6781 49.3662 59.2669 55.0684C53.8557 60.7706 49.7756 67.6011 47.3202 75.0686C44.8649 82.536 44.0952 90.4548 45.0667 98.2552C44.0404 106.082 44.7691 114.038 47.1997 121.548C49.6304 129.058 53.7022 135.933 59.1198 141.675C64.5373 147.416 71.1649 151.88 78.5219 154.742C85.8788 157.605 93.7807 158.794 101.654 158.225C112.502 159.38 123.402 156.591 132.362 150.37C141.322 144.149 147.742 134.91 150.449 124.344H194.838C191.636 146.078 180.146 165.731 162.776 179.183C145.405 192.636 123.502 198.845 101.654 196.51C88.3096 197.639 74.8777 195.9 62.2609 191.408C49.6441 186.917 38.1347 179.778 28.5056 170.471C18.8766 161.164 11.351 149.905 6.43424 137.449C1.51753 124.993 -0.676415 111.629 -0.000205603 98.2552Z" fill="black"/>
        <path d="M210.424 98.2551C209.989 85.1188 212.278 72.0347 217.149 59.8267C222.019 47.6186 229.365 36.5512 238.723 27.3212C248.081 18.0912 259.25 10.8987 271.525 6.19663C283.8 1.49452 296.915 -0.615326 310.046 -5.26046e-05C323.149 -0.56719 336.227 1.57833 348.462 6.302C360.697 11.0257 371.823 18.2256 381.145 27.4505C390.466 36.6753 397.781 47.7262 402.631 59.9102C407.481 72.0942 409.761 85.1486 409.329 98.2551C409.761 111.361 407.481 124.416 402.631 136.6C397.781 148.784 390.466 159.835 381.145 169.06C371.823 178.284 360.697 185.484 348.462 190.208C336.227 194.932 323.149 197.077 310.046 196.51C296.915 197.125 283.8 195.016 271.525 190.313C259.25 185.611 248.081 178.419 238.723 169.189C229.365 159.959 222.019 148.891 217.149 136.683C212.278 124.475 209.989 111.391 210.424 98.2551ZM364.601 98.2551C365.457 90.581 364.685 82.8126 362.334 75.4574C359.983 68.1022 356.107 61.3257 350.958 55.5708C345.809 49.8158 339.504 45.2119 332.454 42.0599C325.404 38.9078 317.768 37.2785 310.046 37.2785C302.323 37.2785 294.688 38.9078 287.638 42.0599C280.588 45.2119 274.283 49.8158 269.134 55.5708C263.985 61.3257 260.108 68.1022 257.758 75.4574C255.407 82.8126 254.634 90.581 255.491 98.2551C254.634 105.929 255.407 113.697 257.758 121.053C260.108 128.408 263.985 135.184 269.134 140.939C274.283 146.694 280.588 151.298 287.638 154.45C294.688 157.602 302.323 159.232 310.046 159.232C317.768 159.232 325.404 157.602 332.454 154.45C339.504 151.298 345.809 146.694 350.958 140.939C356.107 135.184 359.983 128.408 362.334 121.053C364.685 113.697 365.457 105.929 364.601 98.2551Z" fill="black"/>
        <path d="M434.404 191.428V5.42108H484.554L533.687 137.218L583.159 5.42108H632.292V191.428H590.952V70.8115L549.613 191.428H517.761L474.388 69.7951V191.428H434.404Z" fill="black"/>
        <path d="M747.5 5.42099C756.528 4.93194 765.558 6.34976 774.002 9.58212C782.445 12.8145 790.114 17.7889 796.507 24.1814C802.9 30.574 807.875 38.2413 811.108 46.6841C814.34 55.1269 815.758 64.1559 815.269 73.1831C815.653 82.1841 814.163 91.1666 810.893 99.5615C807.622 107.956 802.644 115.581 796.273 121.951C789.902 128.321 782.277 133.299 773.881 136.569C765.485 139.839 756.502 141.329 747.5 140.945H711.582V191.428H668.548V5.42099H747.5ZM741.062 104.693C745.17 104.656 749.228 103.78 752.986 102.118C756.744 100.457 760.123 98.0453 762.915 95.0312C765.708 92.0171 767.855 88.4643 769.224 84.5907C770.594 80.7172 771.157 76.6046 770.88 72.5055C771.407 68.2727 771.031 63.9762 769.775 59.8998C768.518 55.8234 766.412 52.0599 763.594 48.8577C760.775 45.6556 757.31 43.0877 753.426 41.3237C749.542 39.5596 745.327 38.6396 741.062 38.6244H711.582V102.998L741.062 104.693Z" fill="black"/>
        <path d="M830.517 128.409V5.42108H873.212V125.699C871.54 130.788 871.097 136.2 871.922 141.493C872.746 146.786 874.814 151.808 877.956 156.146C881.097 160.485 885.223 164.018 889.994 166.453C894.765 168.889 900.046 170.159 905.403 170.159C910.76 170.159 916.041 168.889 920.812 166.453C925.583 164.018 929.709 160.485 932.85 156.146C935.992 151.808 938.06 146.786 938.884 141.493C939.709 136.2 939.266 130.788 937.594 125.699V5.42108H980.627V128.409C980.686 137.971 978.719 147.438 974.857 156.186C970.995 164.933 965.325 172.765 958.22 179.165C951.114 185.566 942.735 190.39 933.632 193.321C924.529 196.252 914.908 197.224 905.403 196.171C895.862 197.52 886.14 196.756 876.927 193.931C867.714 191.106 859.235 186.29 852.09 179.825C844.945 173.36 839.309 165.403 835.581 156.518C831.853 147.633 830.125 138.037 830.517 128.409Z" fill="black"/>
        <path d="M1046.7 191.428V43.7067H995.877V5.42108H1140.9V43.7067H1089.74V191.428H1046.7Z" fill="black"/>
        <path d="M1160.22 191.428V5.42108H1274.07V39.3021H1203.25V81.9923H1274.07V115.873H1203.25V156.869H1274.07V190.751L1160.22 191.428Z" fill="black"/>
        <path d="M1419.44 132.475L1453.32 191.428H1403.17L1373.69 139.929H1351.33V191.428H1308.29V5.42099H1387.25C1396.27 4.93194 1405.3 6.34976 1413.75 9.58212C1422.19 12.8145 1429.86 17.7889 1436.25 24.1814C1442.65 30.574 1447.62 38.2413 1450.85 46.6841C1454.09 55.1269 1455.51 64.1559 1455.02 73.1831C1455.22 85.4032 1451.99 97.4358 1445.71 107.916C1439.42 118.396 1430.32 126.904 1419.44 132.475ZM1351.67 40.3185V104.693H1381.15C1385.26 104.656 1389.31 103.78 1393.07 102.118C1396.83 100.457 1400.21 98.0453 1403 95.0312C1405.79 92.0171 1407.94 88.4643 1409.31 84.5907C1410.68 80.7172 1411.24 76.6046 1410.97 72.5055C1411.49 68.2727 1411.12 63.9762 1409.86 59.8998C1408.6 55.8234 1406.5 52.0599 1403.68 48.8577C1400.86 45.6556 1397.4 43.0877 1393.51 41.3237C1389.63 39.5596 1385.41 38.6396 1381.15 38.6244L1351.67 40.3185Z" fill="black"/>
        <path d="M-0.00115232 364.222H44.7269C44.1127 368.61 44.4847 373.081 45.816 377.308C47.1472 381.535 49.4041 385.413 52.4225 388.658C55.4409 391.903 59.1449 394.435 63.2649 396.068C67.3849 397.702 71.8174 398.397 76.2398 398.103C92.5045 398.103 101.992 390.31 101.992 376.758C101.992 363.205 95.893 358.801 78.6117 352.024L44.7269 338.472C33.0643 335.485 22.7597 328.632 15.497 319.031C8.2343 309.431 4.44301 297.651 4.74273 285.617C4.74273 251.736 31.5118 229.036 72.5125 229.036C81.2687 227.835 90.1803 228.508 98.6562 231.013C107.132 233.517 114.979 237.794 121.676 243.561C128.373 249.328 133.767 256.453 137.5 264.463C141.234 272.473 143.222 281.185 143.332 290.022H99.2815C99.7532 286.349 99.3942 282.618 98.231 279.103C97.0678 275.587 95.1301 272.378 92.5608 269.711C89.9916 267.045 86.8563 264.989 83.3864 263.696C79.9165 262.403 76.2005 261.905 72.5125 262.24C57.942 262.24 49.4708 269.693 49.4708 281.213C49.4708 292.732 56.9254 298.831 75.901 306.285L107.753 319.16C119.25 322.524 129.31 329.601 136.36 339.286C143.41 348.971 147.053 360.718 146.72 372.692C146.72 408.945 118.596 432.322 75.901 432.322C66.3144 433.482 56.5908 432.579 47.3814 429.675C38.1721 426.772 29.6898 421.933 22.5026 415.485C15.3155 409.036 9.58962 401.127 5.7085 392.286C1.82739 383.444 -0.1193 373.876 -0.00115232 364.222Z" fill="black"/>
        <path d="M334.104 239.878L258.202 335.761L334.104 433H280.566L217.201 347.62V433H172.812V239.878H217.201V325.597L280.905 239.878H334.104Z" fill="black"/>
        <path d="M413.395 239.878H359.179V433H413.395V239.878Z" fill="black"/>
        <path d="M449.314 433V239.878H494.042V393.359H565.539V433H449.314Z" fill="black"/>
        <path d="M595.018 433V239.878H639.408V393.359H711.582V433H595.018Z" fill="black"/>
        <path d="M724.458 364.222H769.186C768.572 368.611 768.944 373.081 770.275 377.308C771.606 381.535 773.863 385.413 776.881 388.658C779.9 391.903 783.604 394.435 787.724 396.069C791.844 397.702 796.276 398.397 800.699 398.103C817.302 398.103 826.451 390.31 826.451 376.758C826.451 363.205 820.352 358.801 803.071 352.024L769.186 338.472C757.707 335.37 747.598 328.512 740.473 318.993C733.349 309.474 729.619 297.843 729.879 285.956C729.879 252.075 756.648 229.375 797.649 229.375C806.379 228.226 815.254 228.939 823.689 231.467C832.124 233.995 839.927 238.281 846.586 244.042C853.245 249.804 858.607 256.91 862.32 264.894C866.034 272.878 868.014 281.557 868.13 290.361H823.74C824.212 286.688 823.853 282.957 822.69 279.441C821.527 275.926 819.589 272.717 817.02 270.05C814.45 267.384 811.315 265.328 807.845 264.035C804.375 262.742 800.659 262.244 796.971 262.578C782.401 262.578 773.93 270.032 773.93 281.552C773.93 293.071 781.384 299.17 800.36 306.624L832.212 319.499C843.652 322.848 853.669 329.875 860.714 339.49C867.758 349.106 871.436 360.775 871.179 372.692C871.179 408.945 843.055 432.323 800.36 432.323C790.773 433.482 781.05 432.579 771.84 429.676C762.631 426.772 754.149 421.933 746.962 415.485C739.774 409.037 734.049 401.127 730.167 392.286C726.286 383.445 724.34 373.876 724.458 364.222Z" fill="black"/>
        <path d="M1011.8 266.305H1011.46C972.724 266.305 941.321 297.705 941.321 336.439V336.778C941.321 375.512 972.724 406.912 1011.46 406.912H1011.8C1050.54 406.912 1081.94 375.512 1081.94 336.778V336.439C1081.94 297.705 1050.54 266.305 1011.8 266.305Z" fill="#00FF79"/>
        <path d="M310.047 38.6244H309.708C276.771 38.6244 250.071 65.322 250.071 98.2551V98.5939C250.071 131.527 276.771 158.225 309.708 158.225H310.047C342.984 158.225 369.684 131.527 369.684 98.5939V98.2551C369.684 65.322 342.984 38.6244 310.047 38.6244Z" fill="#00FF79"/>
        <path d="M1183.6 266.305H1183.26C1144.52 266.305 1113.12 297.705 1113.12 336.439V336.778C1113.12 375.512 1144.52 406.912 1183.26 406.912H1183.6C1222.34 406.912 1253.74 375.512 1253.74 336.778V336.439C1253.74 297.705 1222.34 266.305 1183.6 266.305Z" fill="#00FF79"/>
        <path d="M1355.06 266.305H1354.72C1315.98 266.305 1284.57 297.705 1284.57 336.439V336.778C1284.57 375.512 1315.98 406.912 1354.72 406.912H1355.06C1393.79 406.912 1425.2 375.512 1425.2 336.778V336.439C1425.2 297.705 1393.79 266.305 1355.06 266.305Z" fill="#00FF79"/>
    </g>
    <defs>
        <clipPath id="clip0_4_31">
            <rect width="1454" height="433" fill="white"/>
        </clipPath>
    </defs>
</svg>
